<mxfile host="65bd71144e" modified="2020-11-20T09:46:18.202Z" agent="5.0 (Windows NT 10.0; Win64; x64) AppleWebKit/537.36 (KHTML, like Gecko) Code/1.51.1 Chrome/83.0.4103.122 Electron/9.3.3 Safari/537.36" version="13.6.5" etag="yiH4G2VtslvSgj685HTk">
    <diagram id="rfIefLuAlC5DmP2SOaE6" name="Page-1">
        <mxGraphModel dx="6439" dy="2604" grid="1" gridSize="10" guides="1" tooltips="1" connect="1" arrows="1" fold="1" page="1" pageScale="1" pageWidth="827" pageHeight="1169" math="0" shadow="0">
            <root>
                <mxCell id="0"/>
                <mxCell id="1" parent="0"/>
                <mxCell id="2" value="&amp;lt;&amp;lt;interface&amp;gt;&amp;gt;&#10;Administrator" style="html=1;whiteSpace=wrap;swimlane;childLayout=stackLayout;horizontal=1;startSize=26;horizontalStack=0;resizeParent=1;resizeParentMax=0;resizeLast=0;collapsible=0;marginBottom=0;swimlaneFillColor=#ff8f80;startSize=25;fontSize=32;fontStyle=1;spacing=0;strokeColor=#5e5e5e;strokeOpacity=100;fillOpacity=100;rounded=1;absoluteArcSize=1;arcSize=7.199999999999999;fillColor=#ff8f80;strokeWidth=2;" vertex="1" zOrder="4" parent="1">
                    <mxGeometry x="-2280" y="-830" width="312" height="727.9496062992126" as="geometry"/>
                </mxCell>
                <mxCell id="3" value="" style="part=1;html=1;resizeHeight=0;strokeColor=none;fillColor=none;align=left;verticalAlign=middle;spacingLeft=4;spacingRight=4;overflow=hidden;rotatable=0;points=[[0,0.5],[1,0.5]];portConstraint=eastwest;swimlaneFillColor=#ff8f80;strokeOpacity=100;fillOpacity=100;fontSize=11;" vertex="1" parent="2">
                    <mxGeometry y="25" width="312" height="260" as="geometry"/>
                </mxCell>
                <mxCell id="4" value="" style="line;strokeWidth=1;fillColor=none;align=left;verticalAlign=middle;spacingTop=-1;spacingLeft=3;spacingRight=3;rotatable=0;labelPosition=right;points=[];portConstraint=eastwest;" vertex="1" parent="2">
                    <mxGeometry y="285" width="312" height="8" as="geometry"/>
                </mxCell>
                <mxCell id="5" value="+ createAgency() : void&#10;+ readAgency() : Agency&#10;+ updateAgency() : void&#10;+ deleteAgency() : void&#10;&#10;+ createUser() : void&#10;+ readUser() : Agency&#10;+ updateUser() : void&#10;+ deleteUser() : void" style="part=1;html=1;resizeHeight=0;strokeColor=none;fillColor=none;align=left;verticalAlign=middle;spacingLeft=4;spacingRight=4;overflow=hidden;rotatable=0;points=[[0,0.5],[1,0.5]];portConstraint=eastwest;swimlaneFillColor=#ff8f80;strokeOpacity=100;fillOpacity=100;fontSize=20;fontColor=#333333;" vertex="1" parent="2">
                    <mxGeometry y="293" width="312" height="434.94960629921263" as="geometry"/>
                </mxCell>
                <mxCell id="6" value="&amp;lt;&amp;lt;interface&amp;gt;&amp;gt;&#10;Client" style="html=1;whiteSpace=wrap;swimlane;childLayout=stackLayout;horizontal=1;startSize=26;horizontalStack=0;resizeParent=1;resizeParentMax=0;resizeLast=0;collapsible=0;marginBottom=0;swimlaneFillColor=#99d2f2;startSize=25;fontSize=32;fontStyle=1;spacing=0;strokeColor=#5e5e5e;strokeOpacity=100;fillOpacity=100;rounded=1;absoluteArcSize=1;arcSize=7.199999999999999;fillColor=#99d2f2;strokeWidth=2;" vertex="1" zOrder="7" parent="1">
                    <mxGeometry x="-1476" y="326" width="408" height="896.2" as="geometry"/>
                </mxCell>
                <mxCell id="7" value="" style="part=1;html=1;resizeHeight=0;strokeColor=none;fillColor=none;align=left;verticalAlign=middle;spacingLeft=4;spacingRight=4;overflow=hidden;rotatable=0;points=[[0,0.5],[1,0.5]];portConstraint=eastwest;swimlaneFillColor=#99d2f2;strokeOpacity=100;fillOpacity=100;fontSize=11;" vertex="1" parent="6">
                    <mxGeometry y="25" width="408" height="344" as="geometry"/>
                </mxCell>
                <mxCell id="8" value="" style="line;strokeWidth=1;fillColor=none;align=left;verticalAlign=middle;spacingTop=-1;spacingLeft=3;spacingRight=3;rotatable=0;labelPosition=right;points=[];portConstraint=eastwest;" vertex="1" parent="6">
                    <mxGeometry y="369" width="408" height="8" as="geometry"/>
                </mxCell>
                <mxCell id="9" value="+ refillCar() : void&#10;&#10;+ startRent() : void&#10;+ endRent() : void&#10;&#10;+ readProfile() : User&#10;+ updateProfile() : void&#10;+ deleteProfile() : void&#10;&#10;+ listRents() : Rent[&#10;&#10;+ sendPicture() : void&#10;+ sendPriceBill() : void&#10;&#10;+ signUp() :  void&#10;+ signout() : void+ " style="part=1;html=1;resizeHeight=0;strokeColor=none;fillColor=none;align=left;verticalAlign=middle;spacingLeft=4;spacingRight=4;overflow=hidden;rotatable=0;points=[[0,0.5],[1,0.5]];portConstraint=eastwest;swimlaneFillColor=#99d2f2;strokeOpacity=100;fillOpacity=100;fontSize=20;fontColor=#333333;" vertex="1" parent="6">
                    <mxGeometry y="377" width="408" height="519.2" as="geometry"/>
                </mxCell>
                <mxCell id="10" value="BaseCar" style="html=1;whiteSpace=wrap;swimlane;childLayout=stackLayout;horizontal=1;startSize=26;horizontalStack=0;resizeParent=1;resizeParentMax=0;resizeLast=0;collapsible=0;marginBottom=0;swimlaneFillColor=#e5e5e5;startSize=25;fontSize=32;fontColor=#333333;spacing=0;strokeColor=#5e5e5e;strokeOpacity=100;fillOpacity=100;rounded=1;absoluteArcSize=1;arcSize=7.199999999999999;fillColor=#e5e5e5;strokeWidth=2;" vertex="1" zOrder="8" parent="1">
                    <mxGeometry x="-4368" y="-424" width="324" height="475.2" as="geometry"/>
                </mxCell>
                <mxCell id="11" value="" style="part=1;html=1;resizeHeight=0;strokeColor=none;fillColor=none;align=left;verticalAlign=middle;spacingLeft=4;spacingRight=4;overflow=hidden;rotatable=0;points=[[0,0.5],[1,0.5]];portConstraint=eastwest;swimlaneFillColor=#e5e5e5;strokeOpacity=100;fillOpacity=100;fontSize=11;" vertex="1" parent="10">
                    <mxGeometry y="25" width="324" height="139" as="geometry"/>
                </mxCell>
                <mxCell id="12" value="" style="line;strokeWidth=1;fillColor=none;align=left;verticalAlign=middle;spacingTop=-1;spacingLeft=3;spacingRight=3;rotatable=0;labelPosition=right;points=[];portConstraint=eastwest;" vertex="1" parent="10">
                    <mxGeometry y="164" width="324" height="8" as="geometry"/>
                </mxCell>
                <mxCell id="13" value="" style="part=1;html=1;resizeHeight=0;strokeColor=none;fillColor=none;align=left;verticalAlign=middle;spacingLeft=4;spacingRight=4;overflow=hidden;rotatable=0;points=[[0,0.5],[1,0.5]];portConstraint=eastwest;swimlaneFillColor=#e5e5e5;strokeOpacity=100;fillOpacity=100;fontSize=11;" vertex="1" parent="10">
                    <mxGeometry y="172" width="324" height="303.2" as="geometry"/>
                </mxCell>
                <mxCell id="14" value="BaseAddress" style="html=1;whiteSpace=wrap;swimlane;childLayout=stackLayout;horizontal=1;startSize=26;horizontalStack=0;resizeParent=1;resizeParentMax=0;resizeLast=0;collapsible=0;marginBottom=0;swimlaneFillColor=#ffeca9;startSize=25;fontSize=32;fontColor=#333333;spacing=0;strokeColor=#5e5e5e;strokeOpacity=100;fillOpacity=100;rounded=1;absoluteArcSize=1;arcSize=7.199999999999999;fillColor=#ffeca9;strokeWidth=2;" vertex="1" zOrder="14" parent="1">
                    <mxGeometry x="96" y="-804" width="240" height="341" as="geometry"/>
                </mxCell>
                <mxCell id="15" value="- number : Integer " style="part=1;html=1;resizeHeight=0;strokeColor=none;fillColor=none;align=left;verticalAlign=middle;spacingLeft=4;spacingRight=4;overflow=hidden;rotatable=0;points=[[0,0.5],[1,0.5]];portConstraint=eastwest;swimlaneFillColor=#ffeca9;strokeOpacity=100;fillOpacity=100;fontSize=20;fontColor=#333333;" vertex="1" parent="14">
                    <mxGeometry y="25" width="240" height="105" as="geometry"/>
                </mxCell>
                <mxCell id="16" value="" style="line;strokeWidth=1;fillColor=none;align=left;verticalAlign=middle;spacingTop=-1;spacingLeft=3;spacingRight=3;rotatable=0;labelPosition=right;points=[];portConstraint=eastwest;" vertex="1" parent="14">
                    <mxGeometry y="130" width="240" height="8" as="geometry"/>
                </mxCell>
                <mxCell id="17" value="" style="part=1;html=1;resizeHeight=0;strokeColor=none;fillColor=none;align=left;verticalAlign=middle;spacingLeft=4;spacingRight=4;overflow=hidden;rotatable=0;points=[[0,0.5],[1,0.5]];portConstraint=eastwest;swimlaneFillColor=#ffeca9;strokeOpacity=100;fillOpacity=100;fontSize=11;" vertex="1" parent="14">
                    <mxGeometry y="138" width="240" height="203" as="geometry"/>
                </mxCell>
                <mxCell id="18" value="Agency" style="html=1;whiteSpace=wrap;swimlane;childLayout=stackLayout;horizontal=1;startSize=26;horizontalStack=0;resizeParent=1;resizeParentMax=0;resizeLast=0;collapsible=0;marginBottom=0;swimlaneFillColor=FFFFFF;startSize=25;fontSize=32;fontColor=#333333;spacing=0;strokeColor=#5e5e5e;strokeOpacity=100;rounded=1;absoluteArcSize=1;arcSize=7.199999999999999;fillColor=FFFFFF;strokeWidth=2;" vertex="1" zOrder="15" parent="1">
                    <mxGeometry x="-4080" y="960" width="324" height="436" as="geometry"/>
                </mxCell>
                <mxCell id="19" value="- name : String" style="part=1;html=1;resizeHeight=0;strokeColor=none;fillColor=none;align=left;verticalAlign=middle;spacingLeft=4;spacingRight=4;overflow=hidden;rotatable=0;points=[[0,0.5],[1,0.5]];portConstraint=eastwest;swimlaneFillColor=FFFFFF;strokeOpacity=100;fontSize=20;fontColor=#333333;" vertex="1" parent="18">
                    <mxGeometry y="25" width="324" height="129" as="geometry"/>
                </mxCell>
                <mxCell id="20" value="" style="line;strokeWidth=1;fillColor=none;align=left;verticalAlign=middle;spacingTop=-1;spacingLeft=3;spacingRight=3;rotatable=0;labelPosition=right;points=[];portConstraint=eastwest;" vertex="1" parent="18">
                    <mxGeometry y="154" width="324" height="8" as="geometry"/>
                </mxCell>
                <mxCell id="21" value="" style="part=1;html=1;resizeHeight=0;strokeColor=none;fillColor=none;align=left;verticalAlign=middle;spacingLeft=4;spacingRight=4;overflow=hidden;rotatable=0;points=[[0,0.5],[1,0.5]];portConstraint=eastwest;swimlaneFillColor=FFFFFF;strokeOpacity=100;fontSize=11;" vertex="1" parent="18">
                    <mxGeometry y="162" width="324" height="274" as="geometry"/>
                </mxCell>
                <mxCell id="22" value="&amp;lt;&amp;lt;interface&amp;gt;&amp;gt;&#10;Manager" style="html=1;whiteSpace=wrap;swimlane;childLayout=stackLayout;horizontal=1;startSize=26;horizontalStack=0;resizeParent=1;resizeParentMax=0;resizeLast=0;collapsible=0;marginBottom=0;swimlaneFillColor=#99d2f2;startSize=25;fontSize=32;fontStyle=1;spacing=0;strokeColor=#5e5e5e;strokeOpacity=100;fillOpacity=100;rounded=1;absoluteArcSize=1;arcSize=7.199999999999999;fillColor=#99d2f2;strokeWidth=2;" vertex="1" zOrder="16" parent="1">
                    <mxGeometry x="-3204" y="143" width="312" height="361" as="geometry"/>
                </mxCell>
                <mxCell id="23" value="" style="part=1;html=1;resizeHeight=0;strokeColor=none;fillColor=none;align=left;verticalAlign=middle;spacingLeft=4;spacingRight=4;overflow=hidden;rotatable=0;points=[[0,0.5],[1,0.5]];portConstraint=eastwest;swimlaneFillColor=#99d2f2;strokeOpacity=100;fillOpacity=100;fontSize=11;" vertex="1" parent="22">
                    <mxGeometry y="25" width="312" height="120" as="geometry"/>
                </mxCell>
                <mxCell id="24" value="" style="line;strokeWidth=1;fillColor=none;align=left;verticalAlign=middle;spacingTop=-1;spacingLeft=3;spacingRight=3;rotatable=0;labelPosition=right;points=[];portConstraint=eastwest;" vertex="1" parent="22">
                    <mxGeometry y="145" width="312" height="8" as="geometry"/>
                </mxCell>
                <mxCell id="25" value="" style="part=1;html=1;resizeHeight=0;strokeColor=none;fillColor=none;align=left;verticalAlign=middle;spacingLeft=4;spacingRight=4;overflow=hidden;rotatable=0;points=[[0,0.5],[1,0.5]];portConstraint=eastwest;swimlaneFillColor=#99d2f2;strokeOpacity=100;fillOpacity=100;fontSize=11;" vertex="1" parent="22">
                    <mxGeometry y="153" width="312" height="208" as="geometry"/>
                </mxCell>
                <mxCell id="26" value="BasecreditCard" style="html=1;whiteSpace=wrap;swimlane;childLayout=stackLayout;horizontal=1;startSize=26;horizontalStack=0;resizeParent=1;resizeParentMax=0;resizeLast=0;collapsible=0;marginBottom=0;swimlaneFillColor=#c7e8ac;startSize=25;fontSize=32;fontColor=#333333;spacing=0;strokeColor=#5e5e5e;strokeOpacity=100;fillOpacity=100;rounded=1;absoluteArcSize=1;arcSize=7.199999999999999;fillColor=#c7e8ac;strokeWidth=2;" vertex="1" zOrder="19" parent="1">
                    <mxGeometry x="-1452" y="-876" width="408" height="556" as="geometry"/>
                </mxCell>
                <mxCell id="27" value="- expirationDate : Date&#10;&#10;- lastName : String = 32&#10;- firstName : String = 32&#10;&#10;- cardNumber : Integer = 16" style="part=1;html=1;resizeHeight=0;strokeColor=none;fillColor=none;align=left;verticalAlign=middle;spacingLeft=4;spacingRight=4;overflow=hidden;rotatable=0;points=[[0,0.5],[1,0.5]];portConstraint=eastwest;swimlaneFillColor=#c7e8ac;strokeOpacity=100;fillOpacity=100;fontSize=20;fontColor=#333333;" vertex="1" parent="26">
                    <mxGeometry y="25" width="408" height="189" as="geometry"/>
                </mxCell>
                <mxCell id="28" value="" style="line;strokeWidth=1;fillColor=none;align=left;verticalAlign=middle;spacingTop=-1;spacingLeft=3;spacingRight=3;rotatable=0;labelPosition=right;points=[];portConstraint=eastwest;" vertex="1" parent="26">
                    <mxGeometry y="214" width="408" height="8" as="geometry"/>
                </mxCell>
                <mxCell id="29" value="" style="part=1;html=1;resizeHeight=0;strokeColor=none;fillColor=none;align=left;verticalAlign=middle;spacingLeft=4;spacingRight=4;overflow=hidden;rotatable=0;points=[[0,0.5],[1,0.5]];portConstraint=eastwest;swimlaneFillColor=#c7e8ac;strokeOpacity=100;fillOpacity=100;fontSize=11;" vertex="1" parent="26">
                    <mxGeometry y="222" width="408" height="334" as="geometry"/>
                </mxCell>
                <UserObject label="" lucidchartObjectId="KBDP-sOj3bXd" id="30">
                    <mxCell style="html=1;jettySize=18;fontSize=11;strokeColor=#5E5E5E;rounded=1;arcSize=12;edgeStyle=orthogonalEdgeStyle;startArrow=diamond;endFill=1;startSize=16;;endArrow=none;;exitX=0.5;exitY=-0.0028625954198473282;exitPerimeter=1;entryX=0.5;entryY=1.0022321428571428;entryPerimeter=1;" edge="1" parent="1" source="110" target="26">
                        <mxGeometry width="100" height="100" relative="1" as="geometry">
                            <Array as="points"/>
                        </mxGeometry>
                    </mxCell>
                </UserObject>
                <mxCell id="31" value="Composition" style="text;html=1;resizable=0;labelBackgroundColor=#ffffff;align=center;verticalAlign=middle;fontStyle=1;fontColor=#333333;;fontSize=22.666666666666657;" vertex="1" parent="30">
                    <mxGeometry x="0.2587274619684614" relative="1" as="geometry"/>
                </mxCell>
                <UserObject label="" lucidchartObjectId="~MDPHWvBmZZT" id="32">
                    <mxCell style="html=1;jettySize=18;fontSize=11;strokeColor=#5E5E5E;rounded=1;arcSize=12;edgeStyle=orthogonalEdgeStyle;startArrow=none;;endArrow=none;;exitX=1.0022058823529412;exitY=0.25233644859813087;exitPerimeter=1;entryX=-0.0037499999999999287;entryY=0.5;entryPerimeter=1;" edge="1" parent="1" source="6" target="14">
                        <mxGeometry width="100" height="100" relative="1" as="geometry">
                            <Array as="points"/>
                        </mxGeometry>
                    </mxCell>
                </UserObject>
                <UserObject label="" lucidchartObjectId="QNDPG9SQ7S8q" id="33">
                    <mxCell style="html=1;jettySize=18;fontSize=11;strokeColor=#5E5E5E;dashed=1;rounded=1;arcSize=12;edgeStyle=orthogonalEdgeStyle;startArrow=none;;endArrow=none;;exitY=0.5894478971015887;exitPerimeter=1;entryY=0.5894478971015887;entryPerimeter=1;" edge="1" parent="1" source="14" target="14">
                        <mxGeometry width="100" height="100" relative="1" as="geometry">
                            <Array as="points">
                                <mxPoint x="115" y="-665" generated="1"/>
                                <mxPoint x="115" y="-665" generated="1"/>
                            </Array>
                        </mxGeometry>
                    </mxCell>
                </UserObject>
                <mxCell id="34" value="BaseLocalization" style="html=1;whiteSpace=wrap;swimlane;childLayout=stackLayout;horizontal=1;startSize=26;horizontalStack=0;resizeParent=1;resizeParentMax=0;resizeLast=0;collapsible=0;marginBottom=0;swimlaneFillColor=#f9d2de;startSize=25;fontSize=32;fontColor=#333333;spacing=0;strokeColor=#5e5e5e;strokeOpacity=100;fillOpacity=100;rounded=1;absoluteArcSize=1;arcSize=7.199999999999999;fillColor=#f9d2de;strokeWidth=2;" vertex="1" zOrder="24" parent="1">
                    <mxGeometry x="-4620" y="733" width="300" height="412" as="geometry"/>
                </mxCell>
                <mxCell id="35" value="" style="part=1;html=1;resizeHeight=0;strokeColor=none;fillColor=none;align=left;verticalAlign=middle;spacingLeft=4;spacingRight=4;overflow=hidden;rotatable=0;points=[[0,0.5],[1,0.5]];portConstraint=eastwest;swimlaneFillColor=#f9d2de;strokeOpacity=100;fillOpacity=100;fontSize=11;" vertex="1" parent="34">
                    <mxGeometry y="25" width="300" height="129" as="geometry"/>
                </mxCell>
                <mxCell id="36" value="" style="line;strokeWidth=1;fillColor=none;align=left;verticalAlign=middle;spacingTop=-1;spacingLeft=3;spacingRight=3;rotatable=0;labelPosition=right;points=[];portConstraint=eastwest;" vertex="1" parent="34">
                    <mxGeometry y="154" width="300" height="8" as="geometry"/>
                </mxCell>
                <mxCell id="37" value="" style="part=1;html=1;resizeHeight=0;strokeColor=none;fillColor=none;align=left;verticalAlign=middle;spacingLeft=4;spacingRight=4;overflow=hidden;rotatable=0;points=[[0,0.5],[1,0.5]];portConstraint=eastwest;swimlaneFillColor=#f9d2de;strokeOpacity=100;fillOpacity=100;fontSize=11;" vertex="1" parent="34">
                    <mxGeometry y="162" width="300" height="250" as="geometry"/>
                </mxCell>
                <mxCell id="38" value="City" style="html=1;whiteSpace=wrap;swimlane;childLayout=stackLayout;horizontal=1;startSize=26;horizontalStack=0;resizeParent=1;resizeParentMax=0;resizeLast=0;collapsible=0;marginBottom=0;swimlaneFillColor=#ffeca9;startSize=25;fontSize=32;fontColor=#333333;spacing=0;strokeColor=#5e5e5e;strokeOpacity=100;fillOpacity=100;rounded=1;absoluteArcSize=1;arcSize=7.199999999999999;fillColor=#ffeca9;strokeWidth=2;" vertex="1" zOrder="27" parent="1">
                    <mxGeometry x="179" y="-108" width="252" height="245" as="geometry"/>
                </mxCell>
                <mxCell id="39" value="- name : String = 32&#10;&#10;- zipCode : String =  5&#10;&#10;" style="part=1;html=1;resizeHeight=0;strokeColor=none;fillColor=none;align=left;verticalAlign=middle;spacingLeft=4;spacingRight=4;overflow=hidden;rotatable=0;points=[[0,0.5],[1,0.5]];portConstraint=eastwest;swimlaneFillColor=#ffeca9;strokeOpacity=100;fillOpacity=100;fontSize=20;fontColor=#333333;" vertex="1" parent="38">
                    <mxGeometry y="25" width="252" height="105" as="geometry"/>
                </mxCell>
                <mxCell id="40" value="" style="line;strokeWidth=1;fillColor=none;align=left;verticalAlign=middle;spacingTop=-1;spacingLeft=3;spacingRight=3;rotatable=0;labelPosition=right;points=[];portConstraint=eastwest;" vertex="1" parent="38">
                    <mxGeometry y="130" width="252" height="8" as="geometry"/>
                </mxCell>
                <mxCell id="41" value="" style="part=1;html=1;resizeHeight=0;strokeColor=none;fillColor=none;align=left;verticalAlign=middle;spacingLeft=4;spacingRight=4;overflow=hidden;rotatable=0;points=[[0,0.5],[1,0.5]];portConstraint=eastwest;swimlaneFillColor=#ffeca9;strokeOpacity=100;fillOpacity=100;fontSize=11;" vertex="1" parent="38">
                    <mxGeometry y="138" width="252" height="107" as="geometry"/>
                </mxCell>
                <UserObject label="" lucidchartObjectId="0VDPelJ_Ds8s" id="42">
                    <mxCell style="html=1;jettySize=18;fontSize=11;strokeColor=#5E5E5E;rounded=1;arcSize=12;edgeStyle=orthogonalEdgeStyle;startArrow=none;;endArrow=diamond;endFill=0;endSize=16;;exitX=-0.00375;exitY=0.7897183046788057;exitPerimeter=1;entryX=0.5;entryY=-0.004411764705882353;entryPerimeter=1;" edge="1" parent="1" source="14" target="47">
                        <mxGeometry width="100" height="100" relative="1" as="geometry">
                            <Array as="points"/>
                        </mxGeometry>
                    </mxCell>
                </UserObject>
                <mxCell id="43" value="Country" style="html=1;whiteSpace=wrap;swimlane;childLayout=stackLayout;horizontal=1;startSize=26;horizontalStack=0;resizeParent=1;resizeParentMax=0;resizeLast=0;collapsible=0;marginBottom=0;swimlaneFillColor=#ffeca9;startSize=25;fontSize=32;fontColor=#333333;spacing=0;strokeColor=#5e5e5e;strokeOpacity=100;fillOpacity=100;rounded=1;absoluteArcSize=1;arcSize=7.199999999999999;fillColor=#ffeca9;strokeWidth=2;" vertex="1" zOrder="29" parent="1">
                    <mxGeometry x="587" y="-84" width="240" height="207.8" as="geometry"/>
                </mxCell>
                <mxCell id="44" value="- name : String = 32&#10;&#10;&#10;" style="part=1;html=1;resizeHeight=0;strokeColor=none;fillColor=none;align=left;verticalAlign=middle;spacingLeft=4;spacingRight=4;overflow=hidden;rotatable=0;points=[[0,0.5],[1,0.5]];portConstraint=eastwest;swimlaneFillColor=#ffeca9;strokeOpacity=100;fillOpacity=100;fontSize=20;fontColor=#333333;" vertex="1" parent="43">
                    <mxGeometry y="25" width="240" height="90" as="geometry"/>
                </mxCell>
                <mxCell id="45" value="" style="line;strokeWidth=1;fillColor=none;align=left;verticalAlign=middle;spacingTop=-1;spacingLeft=3;spacingRight=3;rotatable=0;labelPosition=right;points=[];portConstraint=eastwest;" vertex="1" parent="43">
                    <mxGeometry y="115" width="240" height="8" as="geometry"/>
                </mxCell>
                <mxCell id="46" value="" style="part=1;html=1;resizeHeight=0;strokeColor=none;fillColor=none;align=left;verticalAlign=middle;spacingLeft=4;spacingRight=4;overflow=hidden;rotatable=0;points=[[0,0.5],[1,0.5]];portConstraint=eastwest;swimlaneFillColor=#ffeca9;strokeOpacity=100;fillOpacity=100;fontSize=11;" vertex="1" parent="43">
                    <mxGeometry y="123" width="240" height="84.8" as="geometry"/>
                </mxCell>
                <mxCell id="47" value="Street" style="html=1;whiteSpace=wrap;swimlane;childLayout=stackLayout;horizontal=1;startSize=26;horizontalStack=0;resizeParent=1;resizeParentMax=0;resizeLast=0;collapsible=0;marginBottom=0;swimlaneFillColor=#ffeca9;startSize=25;fontSize=32;fontColor=#333333;spacing=0;strokeColor=#5e5e5e;strokeOpacity=100;fillOpacity=100;rounded=1;absoluteArcSize=1;arcSize=7.199999999999999;fillColor=#ffeca9;strokeWidth=2;" vertex="1" zOrder="29" parent="1">
                    <mxGeometry x="-193" y="-92" width="204" height="279.8" as="geometry"/>
                </mxCell>
                <mxCell id="48" value="- name : String = 32" style="part=1;html=1;resizeHeight=0;strokeColor=none;fillColor=none;align=left;verticalAlign=middle;spacingLeft=4;spacingRight=4;overflow=hidden;rotatable=0;points=[[0,0.5],[1,0.5]];portConstraint=eastwest;swimlaneFillColor=#ffeca9;strokeOpacity=100;fillOpacity=100;fontSize=20;fontColor=#333333;" vertex="1" parent="47">
                    <mxGeometry y="25" width="204" height="90" as="geometry"/>
                </mxCell>
                <mxCell id="49" value="" style="line;strokeWidth=1;fillColor=none;align=left;verticalAlign=middle;spacingTop=-1;spacingLeft=3;spacingRight=3;rotatable=0;labelPosition=right;points=[];portConstraint=eastwest;" vertex="1" parent="47">
                    <mxGeometry y="115" width="204" height="8" as="geometry"/>
                </mxCell>
                <mxCell id="50" value="" style="part=1;html=1;resizeHeight=0;strokeColor=none;fillColor=none;align=left;verticalAlign=middle;spacingLeft=4;spacingRight=4;overflow=hidden;rotatable=0;points=[[0,0.5],[1,0.5]];portConstraint=eastwest;swimlaneFillColor=#ffeca9;strokeOpacity=100;fillOpacity=100;fontSize=11;" vertex="1" parent="47">
                    <mxGeometry y="123" width="204" height="156.8" as="geometry"/>
                </mxCell>
                <UserObject label="" lucidchartObjectId="oZDPMXBSBQoi" id="51">
                    <mxCell style="html=1;jettySize=18;fontSize=11;strokeColor=#5E5E5E;rounded=1;arcSize=12;edgeStyle=orthogonalEdgeStyle;startArrow=none;;endArrow=diamond;endFill=1;endSize=16;;exitX=1.0035714285714286;exitY=0.5357142857142856;exitPerimeter=1;entryX=-0.003750000000000071;entryY=0.5;entryPerimeter=1;" edge="1" parent="1" source="38" target="43">
                        <mxGeometry width="100" height="100" relative="1" as="geometry">
                            <Array as="points"/>
                        </mxGeometry>
                    </mxCell>
                </UserObject>
                <UserObject label="" lucidchartObjectId="L0DP7nwBgOTO" id="52">
                    <mxCell style="html=1;jettySize=18;fontSize=11;strokeColor=#5E5E5E;rounded=1;arcSize=12;edgeStyle=orthogonalEdgeStyle;startArrow=ERmany;startSize=10;;endArrow=ERmany;endSize=10;;exitX=1.0044117647058823;exitY=0.5;exitPerimeter=1;entryX=-0.0035714285714285037;entryY=0.5;entryPerimeter=1;" edge="1" parent="1" source="47" target="38">
                        <mxGeometry width="100" height="100" relative="1" as="geometry">
                            <Array as="points"/>
                        </mxGeometry>
                    </mxCell>
                </UserObject>
                <UserObject label="" lucidchartObjectId="e1DP7h.QYlF." id="53">
                    <mxCell style="html=1;jettySize=18;fontSize=11;strokeColor=#834187;strokeOpacity=100;rounded=1;arcSize=12;edgeStyle=orthogonalEdgeStyle;startArrow=none;;endArrow=diamond;endFill=0;endSize=16;;exitX=0.5;exitY=1.003826530612245;exitPerimeter=1;entryX=0.5;entryY=-0.0038265306122449703;entryPerimeter=1;" edge="1" parent="1" source="14" target="38">
                        <mxGeometry width="100" height="100" relative="1" as="geometry">
                            <Array as="points">
                                <mxPoint x="247" y="-306"/>
                                <mxPoint x="253" y="-306"/>
                                <mxPoint x="253" y="-156"/>
                                <mxPoint x="301" y="-156"/>
                            </Array>
                        </mxGeometry>
                    </mxCell>
                </UserObject>
                <mxCell id="54" value="Suffix" style="html=1;whiteSpace=wrap;swimlane;childLayout=stackLayout;horizontal=1;startSize=26;horizontalStack=0;resizeParent=1;resizeParentMax=0;resizeLast=0;collapsible=0;marginBottom=0;swimlaneFillColor=#ffeca9;startSize=25;fontSize=32;fontColor=#333333;spacing=0;strokeColor=#5e5e5e;strokeOpacity=100;fillOpacity=100;rounded=1;absoluteArcSize=1;arcSize=7.199999999999999;fillColor=#ffeca9;strokeWidth=2;" vertex="1" zOrder="34" parent="1">
                    <mxGeometry x="-492" y="-36" width="216" height="146.8" as="geometry"/>
                </mxCell>
                <mxCell id="55" value="- name" style="part=1;html=1;resizeHeight=0;strokeColor=none;fillColor=none;align=left;verticalAlign=middle;spacingLeft=4;spacingRight=4;overflow=hidden;rotatable=0;points=[[0,0.5],[1,0.5]];portConstraint=eastwest;swimlaneFillColor=#ffeca9;strokeOpacity=100;fillOpacity=100;fontSize=20;fontColor=#333333;" vertex="1" parent="54">
                    <mxGeometry y="25" width="216" height="54" as="geometry"/>
                </mxCell>
                <mxCell id="56" value="" style="line;strokeWidth=1;fillColor=none;align=left;verticalAlign=middle;spacingTop=-1;spacingLeft=3;spacingRight=3;rotatable=0;labelPosition=right;points=[];portConstraint=eastwest;" vertex="1" parent="54">
                    <mxGeometry y="79" width="216" height="8" as="geometry"/>
                </mxCell>
                <mxCell id="57" value="" style="part=1;html=1;resizeHeight=0;strokeColor=none;fillColor=none;align=left;verticalAlign=middle;spacingLeft=4;spacingRight=4;overflow=hidden;rotatable=0;points=[[0,0.5],[1,0.5]];portConstraint=eastwest;swimlaneFillColor=#ffeca9;strokeOpacity=100;fillOpacity=100;fontSize=11;" vertex="1" parent="54">
                    <mxGeometry y="87" width="216" height="59.8" as="geometry"/>
                </mxCell>
                <UserObject label="" lucidchartObjectId="U4DPAWzCfaUG" id="58">
                    <mxCell style="html=1;jettySize=18;fontSize=11;strokeColor=#5E5E5E;rounded=1;arcSize=12;edgeStyle=orthogonalEdgeStyle;startArrow=none;;endArrow=none;;exitX=-0.004411764705882353;exitY=0.5;exitPerimeter=1;entryX=1.0041666666666667;entryY=0.3423423423423418;entryPerimeter=1;" edge="1" parent="1" source="47" target="54">
                        <mxGeometry width="100" height="100" relative="1" as="geometry">
                            <Array as="points"/>
                        </mxGeometry>
                    </mxCell>
                </UserObject>
                <UserObject label="" lucidchartObjectId="qPTPMJN19MaH" id="59">
                    <mxCell style="html=1;jettySize=18;fontSize=11;strokeColor=#c92d39;strokeOpacity=100;strokeWidth=4;rounded=1;arcSize=12;edgeStyle=orthogonalEdgeStyle;startArrow=none;;endArrow=none;;exitX=-0.0028846153846153848;exitY=0.5;exitPerimeter=1;entryX=1.0027777777777778;entryY=0.5;entryPerimeter=1;" edge="1" parent="1" source="120" target="18">
                        <mxGeometry width="100" height="100" relative="1" as="geometry">
                            <Array as="points"/>
                        </mxGeometry>
                    </mxCell>
                </UserObject>
                <UserObject label="" lucidchartObjectId="LpEPcqVdFbPr" id="60">
                    <mxCell style="html=1;jettySize=18;fontSize=11;strokeColor=#5E5E5E;strokeWidth=4;rounded=1;arcSize=12;edgeStyle=orthogonalEdgeStyle;startArrow=none;;endArrow=block;endFill=0;;exitX=-0.0022058823529411764;exitY=0.41414141414141414;exitPerimeter=1;entryX=1.0028846153846154;entryY=0.814968814968815;entryPerimeter=1;" edge="1" parent="1" source="6" target="128">
                        <mxGeometry width="100" height="100" relative="1" as="geometry">
                            <Array as="points"/>
                        </mxGeometry>
                    </mxCell>
                </UserObject>
                <UserObject label="" lucidchartObjectId="QpEP~G-iInLR" id="61">
                    <mxCell style="html=1;jettySize=18;fontSize=11;strokeColor=#5E5E5E;strokeWidth=2;rounded=1;arcSize=12;edgeStyle=orthogonalEdgeStyle;startArrow=none;;endArrow=block;endFill=0;endSize=12;;exitX=1.0028846153846154;exitY=0.5;exitPerimeter=1;entryX=-0.002884615384615494;entryY=0.7684564839897621;entryPerimeter=1;" edge="1" parent="1" source="22" target="128">
                        <mxGeometry width="100" height="100" relative="1" as="geometry">
                            <Array as="points"/>
                        </mxGeometry>
                    </mxCell>
                </UserObject>
                <UserObject label="" lucidchartObjectId="VyEPJtCxPHjH" id="62">
                    <mxCell style="html=1;jettySize=18;fontSize=11;strokeColor=#5E5E5E;strokeWidth=3;rounded=1;arcSize=12;edgeStyle=orthogonalEdgeStyle;startArrow=ERmany;startSize=10;;endArrow=none;;exitX=0.5;exitY=1.0029761904761905;exitPerimeter=1;entryX=0.9079109838134156;entryY=-0.0031779661016949155;entryPerimeter=1;" edge="1" parent="1" source="10" target="18">
                        <mxGeometry width="100" height="100" relative="1" as="geometry">
                            <Array as="points"/>
                        </mxGeometry>
                    </mxCell>
                </UserObject>
                <mxCell id="63" value="Brand" style="html=1;whiteSpace=wrap;swimlane;childLayout=stackLayout;horizontal=1;startSize=26;horizontalStack=0;resizeParent=1;resizeParentMax=0;resizeLast=0;collapsible=0;marginBottom=0;swimlaneFillColor=#e5e5e5;startSize=25;fontSize=32;fontColor=#333333;spacing=0;strokeColor=#5e5e5e;strokeOpacity=100;fillOpacity=100;rounded=1;absoluteArcSize=1;arcSize=7.199999999999999;fillColor=#e5e5e5;strokeWidth=2;" vertex="1" zOrder="44" parent="1">
                    <mxGeometry x="-5136" y="-684" width="228" height="475.2" as="geometry"/>
                </mxCell>
                <mxCell id="64" value="- name : String = 32" style="part=1;html=1;resizeHeight=0;strokeColor=none;fillColor=none;align=left;verticalAlign=middle;spacingLeft=4;spacingRight=4;overflow=hidden;rotatable=0;points=[[0,0.5],[1,0.5]];portConstraint=eastwest;swimlaneFillColor=#e5e5e5;strokeOpacity=100;fillOpacity=100;fontSize=20;fontColor=#333333;" vertex="1" parent="63">
                    <mxGeometry y="25" width="228" height="139" as="geometry"/>
                </mxCell>
                <mxCell id="65" value="" style="line;strokeWidth=1;fillColor=none;align=left;verticalAlign=middle;spacingTop=-1;spacingLeft=3;spacingRight=3;rotatable=0;labelPosition=right;points=[];portConstraint=eastwest;" vertex="1" parent="63">
                    <mxGeometry y="164" width="228" height="8" as="geometry"/>
                </mxCell>
                <mxCell id="66" value="" style="part=1;html=1;resizeHeight=0;strokeColor=none;fillColor=none;align=left;verticalAlign=middle;spacingLeft=4;spacingRight=4;overflow=hidden;rotatable=0;points=[[0,0.5],[1,0.5]];portConstraint=eastwest;swimlaneFillColor=#e5e5e5;strokeOpacity=100;fillOpacity=100;fontSize=11;" vertex="1" parent="63">
                    <mxGeometry y="172" width="228" height="303.2" as="geometry"/>
                </mxCell>
                <mxCell id="67" value="Model" style="html=1;whiteSpace=wrap;swimlane;childLayout=stackLayout;horizontal=1;startSize=26;horizontalStack=0;resizeParent=1;resizeParentMax=0;resizeLast=0;collapsible=0;marginBottom=0;swimlaneFillColor=#e5e5e5;startSize=25;fontSize=32;fontColor=#333333;spacing=0;strokeColor=#5e5e5e;strokeOpacity=100;fillOpacity=100;rounded=1;absoluteArcSize=1;arcSize=7.199999999999999;fillColor=#e5e5e5;strokeWidth=2;" vertex="1" zOrder="45" parent="1">
                    <mxGeometry x="-5184" y="-300" width="228" height="446.79999999999995" as="geometry"/>
                </mxCell>
                <mxCell id="68" value="- name : String = 32" style="part=1;html=1;resizeHeight=0;strokeColor=none;fillColor=none;align=left;verticalAlign=middle;spacingLeft=4;spacingRight=4;overflow=hidden;rotatable=0;points=[[0,0.5],[1,0.5]];portConstraint=eastwest;swimlaneFillColor=#e5e5e5;strokeOpacity=100;fillOpacity=100;fontSize=20;fontColor=#333333;" vertex="1" parent="67">
                    <mxGeometry y="25" width="228" height="132" as="geometry"/>
                </mxCell>
                <mxCell id="69" value="" style="line;strokeWidth=1;fillColor=none;align=left;verticalAlign=middle;spacingTop=-1;spacingLeft=3;spacingRight=3;rotatable=0;labelPosition=right;points=[];portConstraint=eastwest;" vertex="1" parent="67">
                    <mxGeometry y="157" width="228" height="8" as="geometry"/>
                </mxCell>
                <mxCell id="70" value="" style="part=1;html=1;resizeHeight=0;strokeColor=none;fillColor=none;align=left;verticalAlign=middle;spacingLeft=4;spacingRight=4;overflow=hidden;rotatable=0;points=[[0,0.5],[1,0.5]];portConstraint=eastwest;swimlaneFillColor=#e5e5e5;strokeOpacity=100;fillOpacity=100;fontSize=11;" vertex="1" parent="67">
                    <mxGeometry y="165" width="228" height="281.79999999999995" as="geometry"/>
                </mxCell>
                <UserObject label="" lucidchartObjectId="mBEPEIezt0qO" id="71">
                    <mxCell style="html=1;jettySize=18;fontSize=11;strokeColor=#5E5E5E;strokeWidth=4;rounded=1;arcSize=12;edgeStyle=orthogonalEdgeStyle;startArrow=none;;endArrow=none;;exitX=1.0039473684210527;exitY=0.7614760043146294;exitPerimeter=1;entryX=-0.002777777777777778;entryY=0.4901315789473684;entryPerimeter=1;" edge="1" parent="1" source="67" target="10">
                        <mxGeometry width="100" height="100" relative="1" as="geometry">
                            <Array as="points"/>
                        </mxGeometry>
                    </mxCell>
                </UserObject>
                <UserObject label="" lucidchartObjectId="vBEPPZHmdo~H" id="72">
                    <mxCell style="html=1;jettySize=18;fontSize=11;strokeColor=#5E5E5E;strokeWidth=4;rounded=1;arcSize=12;edgeStyle=orthogonalEdgeStyle;startArrow=none;;endArrow=none;;exitX=1.0039473684210527;exitY=0.9217697624028529;exitPerimeter=1;entryX=-0.0027777777777776725;entryY=0.193139097744361;entryPerimeter=1;" edge="1" parent="1" source="63" target="10">
                        <mxGeometry width="100" height="100" relative="1" as="geometry">
                            <Array as="points"/>
                        </mxGeometry>
                    </mxCell>
                </UserObject>
                <mxCell id="73" value="Color" style="html=1;whiteSpace=wrap;swimlane;childLayout=stackLayout;horizontal=1;startSize=26;horizontalStack=0;resizeParent=1;resizeParentMax=0;resizeLast=0;collapsible=0;marginBottom=0;swimlaneFillColor=#e5e5e5;startSize=25;fontSize=32;fontColor=#333333;spacing=0;strokeColor=#5e5e5e;strokeOpacity=100;fillOpacity=100;rounded=1;absoluteArcSize=1;arcSize=7.199999999999999;fillColor=#e5e5e5;strokeWidth=2;" vertex="1" zOrder="48" parent="1">
                    <mxGeometry x="-5184" y="384" width="228" height="446.79999999999995" as="geometry"/>
                </mxCell>
                <mxCell id="74" value="- name : String = 32" style="part=1;html=1;resizeHeight=0;strokeColor=none;fillColor=none;align=left;verticalAlign=middle;spacingLeft=4;spacingRight=4;overflow=hidden;rotatable=0;points=[[0,0.5],[1,0.5]];portConstraint=eastwest;swimlaneFillColor=#e5e5e5;strokeOpacity=100;fillOpacity=100;fontSize=20;fontColor=#333333;" vertex="1" parent="73">
                    <mxGeometry y="25" width="228" height="132" as="geometry"/>
                </mxCell>
                <mxCell id="75" value="" style="line;strokeWidth=1;fillColor=none;align=left;verticalAlign=middle;spacingTop=-1;spacingLeft=3;spacingRight=3;rotatable=0;labelPosition=right;points=[];portConstraint=eastwest;" vertex="1" parent="73">
                    <mxGeometry y="157" width="228" height="8" as="geometry"/>
                </mxCell>
                <mxCell id="76" value="" style="part=1;html=1;resizeHeight=0;strokeColor=none;fillColor=none;align=left;verticalAlign=middle;spacingLeft=4;spacingRight=4;overflow=hidden;rotatable=0;points=[[0,0.5],[1,0.5]];portConstraint=eastwest;swimlaneFillColor=#e5e5e5;strokeOpacity=100;fillOpacity=100;fontSize=11;" vertex="1" parent="73">
                    <mxGeometry y="165" width="228" height="281.79999999999995" as="geometry"/>
                </mxCell>
                <UserObject label="" lucidchartObjectId="-DEPO_3HxVfS" id="77">
                    <mxCell style="html=1;jettySize=18;fontSize=11;strokeColor=#5E5E5E;strokeWidth=4;rounded=1;arcSize=12;edgeStyle=orthogonalEdgeStyle;startArrow=none;;endArrow=none;;exitX=1.0039473684210527;exitY=0.7423084583124637;exitPerimeter=1;entryX=-0.002777777777777778;entryY=0.904451839270811;entryPerimeter=1;" edge="1" parent="1" source="73" target="10">
                        <mxGeometry width="100" height="100" relative="1" as="geometry">
                            <Array as="points"/>
                        </mxGeometry>
                    </mxCell>
                </UserObject>
                <mxCell id="78" value="Energy" style="html=1;whiteSpace=wrap;swimlane;childLayout=stackLayout;horizontal=1;startSize=26;horizontalStack=0;resizeParent=1;resizeParentMax=0;resizeLast=0;collapsible=0;marginBottom=0;swimlaneFillColor=#e5e5e5;startSize=25;fontSize=32;fontColor=#333333;spacing=0;strokeColor=#5e5e5e;strokeOpacity=100;fillOpacity=100;rounded=1;absoluteArcSize=1;arcSize=7.199999999999999;fillColor=#e5e5e5;strokeWidth=2;" vertex="1" zOrder="50" parent="1">
                    <mxGeometry x="-4824" y="-996" width="228" height="470.79999999999995" as="geometry"/>
                </mxCell>
                <mxCell id="79" value="- max :  Integer&#10;- current : Integer" style="part=1;html=1;resizeHeight=0;strokeColor=none;fillColor=none;align=left;verticalAlign=middle;spacingLeft=4;spacingRight=4;overflow=hidden;rotatable=0;points=[[0,0.5],[1,0.5]];portConstraint=eastwest;swimlaneFillColor=#e5e5e5;strokeOpacity=100;fillOpacity=100;fontSize=20;fontColor=#333333;" vertex="1" parent="78">
                    <mxGeometry y="25" width="228" height="144" as="geometry"/>
                </mxCell>
                <mxCell id="80" value="" style="line;strokeWidth=1;fillColor=none;align=left;verticalAlign=middle;spacingTop=-1;spacingLeft=3;spacingRight=3;rotatable=0;labelPosition=right;points=[];portConstraint=eastwest;" vertex="1" parent="78">
                    <mxGeometry y="169" width="228" height="8" as="geometry"/>
                </mxCell>
                <mxCell id="81" value="+ alertLevel() : void" style="part=1;html=1;resizeHeight=0;strokeColor=none;fillColor=none;align=left;verticalAlign=middle;spacingLeft=4;spacingRight=4;overflow=hidden;rotatable=0;points=[[0,0.5],[1,0.5]];portConstraint=eastwest;swimlaneFillColor=#e5e5e5;strokeOpacity=100;fillOpacity=100;fontSize=20;fontColor=#333333;" vertex="1" parent="78">
                    <mxGeometry y="177" width="228" height="293.79999999999995" as="geometry"/>
                </mxCell>
                <mxCell id="82" value="EnergyType" style="html=1;whiteSpace=wrap;swimlane;childLayout=stackLayout;horizontal=1;startSize=26;horizontalStack=0;resizeParent=1;resizeParentMax=0;resizeLast=0;collapsible=0;marginBottom=0;swimlaneFillColor=#e5e5e5;startSize=25;fontSize=32;fontColor=#333333;spacing=0;strokeColor=#5e5e5e;strokeOpacity=100;fillOpacity=100;rounded=1;absoluteArcSize=1;arcSize=7.199999999999999;fillColor=#e5e5e5;strokeWidth=2;" vertex="1" zOrder="51" parent="1">
                    <mxGeometry x="-4860" y="-1428" width="228" height="446.79999999999995" as="geometry"/>
                </mxCell>
                <mxCell id="83" value="- name : String : 32" style="part=1;html=1;resizeHeight=0;strokeColor=none;fillColor=none;align=left;verticalAlign=middle;spacingLeft=4;spacingRight=4;overflow=hidden;rotatable=0;points=[[0,0.5],[1,0.5]];portConstraint=eastwest;swimlaneFillColor=#e5e5e5;strokeOpacity=100;fillOpacity=100;fontSize=20;fontColor=#333333;" vertex="1" parent="82">
                    <mxGeometry y="25" width="228" height="132" as="geometry"/>
                </mxCell>
                <mxCell id="84" value="" style="line;strokeWidth=1;fillColor=none;align=left;verticalAlign=middle;spacingTop=-1;spacingLeft=3;spacingRight=3;rotatable=0;labelPosition=right;points=[];portConstraint=eastwest;" vertex="1" parent="82">
                    <mxGeometry y="157" width="228" height="8" as="geometry"/>
                </mxCell>
                <mxCell id="85" value="" style="part=1;html=1;resizeHeight=0;strokeColor=none;fillColor=none;align=left;verticalAlign=middle;spacingLeft=4;spacingRight=4;overflow=hidden;rotatable=0;points=[[0,0.5],[1,0.5]];portConstraint=eastwest;swimlaneFillColor=#e5e5e5;strokeOpacity=100;fillOpacity=100;fontSize=11;" vertex="1" parent="82">
                    <mxGeometry y="165" width="228" height="281.79999999999995" as="geometry"/>
                </mxCell>
                <UserObject label="" lucidchartObjectId="EJEPcHtEb3Is" id="86">
                    <mxCell style="html=1;jettySize=18;fontSize=11;strokeColor=#5E5E5E;strokeWidth=4;rounded=1;arcSize=12;edgeStyle=orthogonalEdgeStyle;startArrow=none;;endArrow=none;;exitX=0.5302631578947369;exitY=-0.0028846153846153848;exitPerimeter=1;entryX=0.5;entryY=1.003125;entryPerimeter=1;" edge="1" parent="1" source="78" target="82">
                        <mxGeometry width="100" height="100" relative="1" as="geometry">
                            <Array as="points"/>
                        </mxGeometry>
                    </mxCell>
                </UserObject>
                <UserObject label="" lucidchartObjectId="uKEPRJ6XrZKV" id="87">
                    <mxCell style="html=1;jettySize=18;fontSize=11;strokeColor=#5E5E5E;strokeWidth=4;rounded=1;arcSize=12;edgeStyle=orthogonalEdgeStyle;startArrow=none;;endArrow=none;;exitX=0.019763484404532926;exitY=-0.0029761904761905324;exitPerimeter=1;entryX=1.0039473684210527;entryY=0.5230769230769231;entryPerimeter=1;" edge="1" parent="1" source="10" target="78">
                        <mxGeometry width="100" height="100" relative="1" as="geometry">
                            <Array as="points"/>
                        </mxGeometry>
                    </mxCell>
                </UserObject>
                <UserObject label="" lucidchartObjectId="LNEP3~CspeV~" id="88">
                    <mxCell style="html=1;jettySize=18;fontSize=11;strokeColor=#0c7cba;strokeOpacity=100;strokeWidth=5;rounded=1;arcSize=12;edgeStyle=orthogonalEdgeStyle;startArrow=none;;endArrow=none;;exitX=1.0027777777777778;exitY=0.6798320930728237;exitPerimeter=1;entryX=0.2604270550978322;entryY=1.003826530612245;entryPerimeter=1;" edge="1" parent="1" source="18" target="14">
                        <mxGeometry width="100" height="100" relative="1" as="geometry">
                            <Array as="points">
                                <mxPoint x="-3484" y="1153"/>
                                <mxPoint x="-894" y="1182"/>
                                <mxPoint x="94" y="-340"/>
                            </Array>
                        </mxGeometry>
                    </mxCell>
                </UserObject>
                <UserObject label="" lucidchartObjectId="XKTPP24UVmcx" id="89">
                    <mxCell style="html=1;jettySize=18;fontSize=11;strokeColor=#0c7cba;strokeOpacity=100;strokeWidth=5;rounded=1;arcSize=12;edgeStyle=orthogonalEdgeStyle;startArrow=none;;endArrow=none;;exitX=1.0022058823529412;exitY=0.5;exitPerimeter=1;entryX=-0.00375;entryY=0.5;entryPerimeter=1;" edge="1" parent="1" source="110" target="14">
                        <mxGeometry width="100" height="100" relative="1" as="geometry">
                            <Array as="points">
                                <mxPoint x="-664" y="85"/>
                                <mxPoint x="-664" y="-318"/>
                                <mxPoint x="-304" y="-318"/>
                                <mxPoint x="-304" y="-590"/>
                            </Array>
                        </mxGeometry>
                    </mxCell>
                </UserObject>
                <UserObject label="" lucidchartObjectId="zTEPGI~eQrPF" id="90">
                    <mxCell style="html=1;jettySize=18;fontSize=11;strokeColor=#68c1b1;strokeOpacity=100;strokeWidth=5;rounded=1;arcSize=12;edgeStyle=orthogonalEdgeStyle;startArrow=none;;endArrow=none;;exitX=0.3230826127548973;exitY=1.0029761904761905;exitPerimeter=1;entryX=0.49999999999999956;entryY=-0.003472222222222222;entryPerimeter=1;" edge="1" parent="1" source="10" target="34">
                        <mxGeometry width="100" height="100" relative="1" as="geometry">
                            <Array as="points"/>
                        </mxGeometry>
                    </mxCell>
                </UserObject>
                <mxCell id="91" value="UserStatus" style="html=1;whiteSpace=wrap;swimlane;childLayout=stackLayout;horizontal=1;startSize=26;horizontalStack=0;resizeParent=1;resizeParentMax=0;resizeLast=0;collapsible=0;marginBottom=0;swimlaneFillColor=#99d2f2;startSize=25;fontSize=32;fontColor=#333333;spacing=0;strokeColor=#5e5e5e;strokeOpacity=100;fillOpacity=100;rounded=1;absoluteArcSize=1;arcSize=7.199999999999999;fillColor=#99d2f2;strokeWidth=2;" vertex="1" zOrder="57" parent="1">
                    <mxGeometry x="-2868" y="-516" width="312" height="323" as="geometry"/>
                </mxCell>
                <mxCell id="92" value="name : String" style="part=1;html=1;resizeHeight=0;strokeColor=none;fillColor=none;align=left;verticalAlign=middle;spacingLeft=4;spacingRight=4;overflow=hidden;rotatable=0;points=[[0,0.5],[1,0.5]];portConstraint=eastwest;swimlaneFillColor=#99d2f2;strokeOpacity=100;fillOpacity=100;fontSize=20;fontColor=#333333;" vertex="1" parent="91">
                    <mxGeometry y="25" width="312" height="101" as="geometry"/>
                </mxCell>
                <mxCell id="93" value="" style="line;strokeWidth=1;fillColor=none;align=left;verticalAlign=middle;spacingTop=-1;spacingLeft=3;spacingRight=3;rotatable=0;labelPosition=right;points=[];portConstraint=eastwest;" vertex="1" parent="91">
                    <mxGeometry y="126" width="312" height="8" as="geometry"/>
                </mxCell>
                <mxCell id="94" value="" style="part=1;html=1;resizeHeight=0;strokeColor=none;fillColor=none;align=left;verticalAlign=middle;spacingLeft=4;spacingRight=4;overflow=hidden;rotatable=0;points=[[0,0.5],[1,0.5]];portConstraint=eastwest;swimlaneFillColor=#99d2f2;strokeOpacity=100;fillOpacity=100;fontSize=11;" vertex="1" parent="91">
                    <mxGeometry y="134" width="312" height="189" as="geometry"/>
                </mxCell>
                <UserObject label="" lucidchartObjectId="eeFPdmZz9bhF" id="95">
                    <mxCell style="html=1;jettySize=18;fontSize=11;strokeColor=#5E5E5E;rounded=1;arcSize=12;edgeStyle=orthogonalEdgeStyle;startArrow=none;;endArrow=none;;exitX=-0.002884615384615494;exitY=0.5;exitPerimeter=1;entryX=0.5;entryY=1.0039787798408488;entryPerimeter=1;" edge="1" parent="1" source="128" target="91">
                        <mxGeometry width="100" height="100" relative="1" as="geometry">
                            <Array as="points">
                                <mxPoint x="-2692" y="576"/>
                            </Array>
                        </mxGeometry>
                    </mxCell>
                </UserObject>
                <mxCell id="96" value="Rent" style="html=1;whiteSpace=wrap;swimlane;childLayout=stackLayout;horizontal=1;startSize=26;horizontalStack=0;resizeParent=1;resizeParentMax=0;resizeLast=0;collapsible=0;marginBottom=0;swimlaneFillColor=#f5b5c8;startSize=25;fontSize=32;fontColor=#333333;spacing=0;strokeColor=#5e5e5e;strokeOpacity=100;fillOpacity=100;rounded=1;absoluteArcSize=1;arcSize=7.199999999999999;fillColor=#f5b5c8;strokeWidth=2;" vertex="1" zOrder="59" parent="1">
                    <mxGeometry x="-2952" y="721" width="324" height="460" as="geometry"/>
                </mxCell>
                <mxCell id="97" value="- startDate Time: DateTime&#10;- endDateTime : DateTime" style="part=1;html=1;resizeHeight=0;strokeColor=none;fillColor=none;align=left;verticalAlign=middle;spacingLeft=4;spacingRight=4;overflow=hidden;rotatable=0;points=[[0,0.5],[1,0.5]];portConstraint=eastwest;swimlaneFillColor=#f5b5c8;strokeOpacity=100;fillOpacity=100;fontSize=20;fontColor=#333333;" vertex="1" parent="96">
                    <mxGeometry y="25" width="324" height="141" as="geometry"/>
                </mxCell>
                <mxCell id="98" value="" style="line;strokeWidth=1;fillColor=none;align=left;verticalAlign=middle;spacingTop=-1;spacingLeft=3;spacingRight=3;rotatable=0;labelPosition=right;points=[];portConstraint=eastwest;" vertex="1" parent="96">
                    <mxGeometry y="166" width="324" height="8" as="geometry"/>
                </mxCell>
                <mxCell id="99" value="" style="part=1;html=1;resizeHeight=0;strokeColor=none;fillColor=none;align=left;verticalAlign=middle;spacingLeft=4;spacingRight=4;overflow=hidden;rotatable=0;points=[[0,0.5],[1,0.5]];portConstraint=eastwest;swimlaneFillColor=#f5b5c8;strokeOpacity=100;fillOpacity=100;fontSize=11;" vertex="1" parent="96">
                    <mxGeometry y="174" width="324" height="286" as="geometry"/>
                </mxCell>
                <UserObject label="" lucidchartObjectId="OpFP_wN8tkdx" id="100">
                    <mxCell style="html=1;jettySize=18;fontSize=11;strokeColor=#ef8d22;strokeOpacity=100;strokeWidth=5;rounded=1;arcSize=12;edgeStyle=orthogonalEdgeStyle;startArrow=none;;endArrow=none;;exitX=-0.0022058823529411764;exitY=0.6263167380034886;exitPerimeter=1;entryX=0.3880558288175457;entryY=1.0029296875;entryPerimeter=1;" edge="1" parent="1" source="6" target="96">
                        <mxGeometry width="100" height="100" relative="1" as="geometry">
                            <Array as="points">
                                <mxPoint x="-1481" y="773"/>
                                <mxPoint x="-1481" y="2114"/>
                                <mxPoint x="-2284" y="2114"/>
                                <mxPoint x="-2284" y="1053"/>
                                <mxPoint x="-2806" y="1053"/>
                            </Array>
                        </mxGeometry>
                    </mxCell>
                </UserObject>
                <UserObject label="" lucidchartObjectId="XpFPq5zYP~cf" id="101">
                    <mxCell style="html=1;jettySize=18;fontSize=11;strokeColor=#3aa6dd;strokeOpacity=100;strokeWidth=3;rounded=1;arcSize=12;edgeStyle=orthogonalEdgeStyle;startArrow=none;;endArrow=none;;exitX=0.16630641591372541;exitY=-0.0029296875;exitPerimeter=1;entryX=1.0027777777777778;entryY=0.7368772176441949;entryPerimeter=1;" edge="1" parent="1" source="96" target="10">
                        <mxGeometry width="100" height="100" relative="1" as="geometry">
                            <Array as="points">
                                <mxPoint x="-2920" y="528"/>
                                <mxPoint x="-3400" y="528"/>
                                <mxPoint x="-3400" y="254"/>
                            </Array>
                        </mxGeometry>
                    </mxCell>
                </UserObject>
                <mxCell id="102" value="Bill" style="html=1;whiteSpace=wrap;swimlane;childLayout=stackLayout;horizontal=1;startSize=26;horizontalStack=0;resizeParent=1;resizeParentMax=0;resizeLast=0;collapsible=0;marginBottom=0;swimlaneFillColor=#ffeca9;startSize=25;fontSize=32;fontColor=#333333;spacing=0;strokeColor=#5e5e5e;strokeOpacity=100;fillOpacity=100;rounded=1;absoluteArcSize=1;arcSize=7.199999999999999;fillColor=#ffeca9;strokeWidth=2;" vertex="1" zOrder="62" parent="1">
                    <mxGeometry x="-2568" y="1212" width="468" height="573.4" as="geometry"/>
                </mxCell>
                <mxCell id="103" value="- price : Double&#10;- date : Date" style="part=1;html=1;resizeHeight=0;strokeColor=none;fillColor=none;align=left;verticalAlign=middle;spacingLeft=4;spacingRight=4;overflow=hidden;rotatable=0;points=[[0,0.5],[1,0.5]];portConstraint=eastwest;swimlaneFillColor=#ffeca9;strokeOpacity=100;fillOpacity=100;fontSize=20;fontColor=#333333;" vertex="1" parent="102">
                    <mxGeometry y="25" width="468" height="170" as="geometry"/>
                </mxCell>
                <mxCell id="104" value="" style="line;strokeWidth=1;fillColor=none;align=left;verticalAlign=middle;spacingTop=-1;spacingLeft=3;spacingRight=3;rotatable=0;labelPosition=right;points=[];portConstraint=eastwest;" vertex="1" parent="102">
                    <mxGeometry y="195" width="468" height="8" as="geometry"/>
                </mxCell>
                <mxCell id="105" value="" style="part=1;html=1;resizeHeight=0;strokeColor=none;fillColor=none;align=left;verticalAlign=middle;spacingLeft=4;spacingRight=4;overflow=hidden;rotatable=0;points=[[0,0.5],[1,0.5]];portConstraint=eastwest;swimlaneFillColor=#ffeca9;strokeOpacity=100;fillOpacity=100;fontSize=11;" vertex="1" parent="102">
                    <mxGeometry y="203" width="468" height="370.4" as="geometry"/>
                </mxCell>
                <UserObject label="" lucidchartObjectId="FtFPsLgDKnul" id="106">
                    <mxCell style="html=1;jettySize=18;fontSize=11;strokeColor=#5E5E5E;strokeWidth=4;rounded=1;arcSize=12;edgeStyle=orthogonalEdgeStyle;startArrow=none;;endArrow=diamond;endFill=0;endSize=16;;exitX=-0.0019230769230769232;exitY=0.5;exitPerimeter=1;entryX=0.7484921840436508;entryY=1.0029761904761905;entryPerimeter=1;" edge="1" parent="1" source="102" target="10">
                        <mxGeometry width="100" height="100" relative="1" as="geometry">
                            <Array as="points"/>
                        </mxGeometry>
                    </mxCell>
                </UserObject>
                <UserObject label="" lucidchartObjectId="3uFPoLVS.C9O" id="107">
                    <mxCell style="html=1;jettySize=18;fontSize=11;strokeColor=#5E5E5E;strokeWidth=4;rounded=1;arcSize=12;edgeStyle=orthogonalEdgeStyle;startArrow=none;;endArrow=diamond;endFill=0;endSize=16;;exitX=-0.0019230769230769232;exitY=0.8753008369128837;exitPerimeter=1;entryX=0.5;entryY=1.0031779661016949;entryPerimeter=1;" edge="1" parent="1" source="102" target="18">
                        <mxGeometry width="100" height="100" relative="1" as="geometry">
                            <Array as="points"/>
                        </mxGeometry>
                    </mxCell>
                </UserObject>
                <mxCell id="108" value="&amp;lt;&amp;lt;interface&amp;gt;&amp;gt;&#10;Interface" style="html=1;whiteSpace=wrap;swimlane;childLayout=stackLayout;horizontal=1;startSize=26;horizontalStack=0;resizeParent=1;resizeParentMax=0;resizeLast=0;collapsible=0;marginBottom=0;swimlaneFillColor=FFFFFF;startSize=25;fontSize=32;fontStyle=1;spacing=0;strokeColor=#5e5e5e;strokeOpacity=100;rounded=1;absoluteArcSize=1;arcSize=7.199999999999999;fillColor=FFFFFF;strokeWidth=2;" vertex="1" zOrder="68" parent="1">
                    <mxGeometry x="-3636" y="-1296" width="348" height="319.2" as="geometry"/>
                </mxCell>
                <mxCell id="109" value="+ operation1(params):returnType&#10;- operation2(params)&#10;- operation3()" style="part=1;html=1;resizeHeight=0;strokeColor=none;fillColor=none;align=left;verticalAlign=middle;spacingLeft=4;spacingRight=4;overflow=hidden;rotatable=0;points=[[0,0.5],[1,0.5]];portConstraint=eastwest;swimlaneFillColor=FFFFFF;strokeOpacity=100;fontSize=21;fontColor=#333333;" vertex="1" parent="108">
                    <mxGeometry y="25" width="348" height="294.2" as="geometry"/>
                </mxCell>
                <mxCell id="110" value="BaseClient" style="html=1;whiteSpace=wrap;swimlane;childLayout=stackLayout;horizontal=1;startSize=26;horizontalStack=0;resizeParent=1;resizeParentMax=0;resizeLast=0;collapsible=0;marginBottom=0;swimlaneFillColor=#99d2f2;startSize=25;fontSize=32;fontStyle=1;spacing=0;strokeColor=#5e5e5e;strokeOpacity=100;fillOpacity=100;rounded=1;absoluteArcSize=1;arcSize=7.199999999999999;fillColor=#99d2f2;strokeWidth=2;" vertex="1" zOrder="69" parent="1">
                    <mxGeometry x="-1452" y="-72" width="408" height="498.2" as="geometry"/>
                </mxCell>
                <mxCell id="111" value="" style="part=1;html=1;resizeHeight=0;strokeColor=none;fillColor=none;align=left;verticalAlign=middle;spacingLeft=4;spacingRight=4;overflow=hidden;rotatable=0;points=[[0,0.5],[1,0.5]];portConstraint=eastwest;swimlaneFillColor=#99d2f2;strokeOpacity=100;fillOpacity=100;fontSize=11;" vertex="1" parent="110">
                    <mxGeometry y="25" width="408" height="145" as="geometry"/>
                </mxCell>
                <mxCell id="112" value="" style="line;strokeWidth=1;fillColor=none;align=left;verticalAlign=middle;spacingTop=-1;spacingLeft=3;spacingRight=3;rotatable=0;labelPosition=right;points=[];portConstraint=eastwest;" vertex="1" parent="110">
                    <mxGeometry y="170" width="408" height="8" as="geometry"/>
                </mxCell>
                <mxCell id="113" value="" style="part=1;html=1;resizeHeight=0;strokeColor=none;fillColor=none;align=left;verticalAlign=middle;spacingLeft=4;spacingRight=4;overflow=hidden;rotatable=0;points=[[0,0.5],[1,0.5]];portConstraint=eastwest;swimlaneFillColor=#99d2f2;strokeOpacity=100;fillOpacity=100;fontSize=11;" vertex="1" parent="110">
                    <mxGeometry y="178" width="408" height="320.2" as="geometry"/>
                </mxCell>
                <mxCell id="114" value="BaseAdministrator" style="html=1;whiteSpace=wrap;swimlane;childLayout=stackLayout;horizontal=1;startSize=26;horizontalStack=0;resizeParent=1;resizeParentMax=0;resizeLast=0;collapsible=0;marginBottom=0;swimlaneFillColor=#ff8f80;startSize=25;fontSize=32;fontStyle=1;spacing=0;strokeColor=#5e5e5e;strokeOpacity=100;fillOpacity=100;rounded=1;absoluteArcSize=1;arcSize=7.199999999999999;fillColor=#ff8f80;strokeWidth=2;" vertex="1" zOrder="70" parent="1">
                    <mxGeometry x="-2232" y="-1224" width="312" height="497.94960629921263" as="geometry"/>
                </mxCell>
                <mxCell id="115" value="" style="part=1;html=1;resizeHeight=0;strokeColor=none;fillColor=none;align=left;verticalAlign=middle;spacingLeft=4;spacingRight=4;overflow=hidden;rotatable=0;points=[[0,0.5],[1,0.5]];portConstraint=eastwest;swimlaneFillColor=#ff8f80;strokeOpacity=100;fillOpacity=100;fontSize=11;" vertex="1" parent="114">
                    <mxGeometry y="25" width="312" height="145" as="geometry"/>
                </mxCell>
                <mxCell id="116" value="" style="line;strokeWidth=1;fillColor=none;align=left;verticalAlign=middle;spacingTop=-1;spacingLeft=3;spacingRight=3;rotatable=0;labelPosition=right;points=[];portConstraint=eastwest;" vertex="1" parent="114">
                    <mxGeometry y="170" width="312" height="8" as="geometry"/>
                </mxCell>
                <mxCell id="117" value="" style="part=1;html=1;resizeHeight=0;strokeColor=none;fillColor=none;align=left;verticalAlign=middle;spacingLeft=4;spacingRight=4;overflow=hidden;rotatable=0;points=[[0,0.5],[1,0.5]];portConstraint=eastwest;swimlaneFillColor=#ff8f80;strokeOpacity=100;fillOpacity=100;fontSize=11;" vertex="1" parent="114">
                    <mxGeometry y="178" width="312" height="319.94960629921263" as="geometry"/>
                </mxCell>
                <UserObject label="" lucidchartObjectId="ZMTPIbxcPhj9" id="118">
                    <mxCell style="html=1;jettySize=18;fontSize=11;strokeColor=#5E5E5E;strokeWidth=4;rounded=1;arcSize=12;edgeStyle=orthogonalEdgeStyle;startArrow=block;endFill=1;;endArrow=none;;exitX=1.001923076923077;exitY=0.5;exitPerimeter=1;entryX=-0.0022058823529411764;entryY=0.7383415930767617;entryPerimeter=1;" edge="1" parent="1" source="102" target="110">
                        <mxGeometry width="100" height="100" relative="1" as="geometry">
                            <Array as="points"/>
                        </mxGeometry>
                    </mxCell>
                </UserObject>
                <UserObject label="" lucidchartObjectId="ZNTPXIl5XcfC" id="119">
                    <mxCell style="html=1;jettySize=18;fontSize=11;strokeColor=#5E5E5E;strokeWidth=3;rounded=1;arcSize=12;edgeStyle=orthogonalEdgeStyle;startArrow=none;;endArrow=block;endFill=0;endSize=12;;exitX=1.0028846153846154;exitY=0.5;exitPerimeter=1;entryX=0.5;entryY=-0.0018203883495146321;entryPerimeter=1;" edge="1" parent="1" source="114" target="124">
                        <mxGeometry width="100" height="100" relative="1" as="geometry">
                            <Array as="points"/>
                        </mxGeometry>
                    </mxCell>
                </UserObject>
                <mxCell id="120" value="BaseManager" style="html=1;whiteSpace=wrap;swimlane;childLayout=stackLayout;horizontal=1;startSize=26;horizontalStack=0;resizeParent=1;resizeParentMax=0;resizeLast=0;collapsible=0;marginBottom=0;swimlaneFillColor=#99d2f2;startSize=25;fontSize=32;fontStyle=1;spacing=0;strokeColor=#5e5e5e;strokeOpacity=100;fillOpacity=100;rounded=1;absoluteArcSize=1;arcSize=7.199999999999999;fillColor=#99d2f2;strokeWidth=2;" vertex="1" zOrder="74" parent="1">
                    <mxGeometry x="-3204" y="-122" width="312" height="323" as="geometry"/>
                </mxCell>
                <mxCell id="121" value="" style="part=1;html=1;resizeHeight=0;strokeColor=none;fillColor=none;align=left;verticalAlign=middle;spacingLeft=4;spacingRight=4;overflow=hidden;rotatable=0;points=[[0,0.5],[1,0.5]];portConstraint=eastwest;swimlaneFillColor=#99d2f2;strokeOpacity=100;fillOpacity=100;fontSize=11;" vertex="1" parent="120">
                    <mxGeometry y="25" width="312" height="101" as="geometry"/>
                </mxCell>
                <mxCell id="122" value="" style="line;strokeWidth=1;fillColor=none;align=left;verticalAlign=middle;spacingTop=-1;spacingLeft=3;spacingRight=3;rotatable=0;labelPosition=right;points=[];portConstraint=eastwest;" vertex="1" parent="120">
                    <mxGeometry y="126" width="312" height="8" as="geometry"/>
                </mxCell>
                <mxCell id="123" value="" style="part=1;html=1;resizeHeight=0;strokeColor=none;fillColor=none;align=left;verticalAlign=middle;spacingLeft=4;spacingRight=4;overflow=hidden;rotatable=0;points=[[0,0.5],[1,0.5]];portConstraint=eastwest;swimlaneFillColor=#99d2f2;strokeOpacity=100;fillOpacity=100;fontSize=11;" vertex="1" parent="120">
                    <mxGeometry y="134" width="312" height="189" as="geometry"/>
                </mxCell>
                <mxCell id="124" value="BaseUser" style="html=1;whiteSpace=wrap;swimlane;childLayout=stackLayout;horizontal=1;startSize=26;horizontalStack=0;resizeParent=1;resizeParentMax=0;resizeLast=0;collapsible=0;marginBottom=0;swimlaneFillColor=#c1e4f7;startSize=25;fontSize=32;fontColor=#333333;spacing=0;strokeColor=#5e5e5e;strokeOpacity=100;fillOpacity=100;rounded=1;absoluteArcSize=1;arcSize=7.199999999999999;fillColor=#c1e4f7;strokeWidth=2;" vertex="1" zOrder="76" parent="1">
                    <mxGeometry x="-2040" y="-168" width="312" height="689.9496062992126" as="geometry"/>
                </mxCell>
                <mxCell id="125" value="&lt;span style=&quot;font-size:20px;color:#333333;text-align: center;&quot;&gt;&lt;span style=&quot;font-size:20px;color:#333333;text-align: center;&quot;&gt;- lastName : String = 32&#10;- firstName : String = 32&#10;&#10;- mail : String = 64&#10;- password : String = 64&#10;&#10;- phoneNumber : String = [10-12]&#10;&#10;&lt;/span&gt;&lt;ul style=&quot;margin: 0px; text-align:left; list-style-type:disc&quot;&gt;&lt;li&gt;&lt;span style=&quot;font-size:20px;color:#333333;margin-left: -1px;&quot;&gt;status : UserStatus&lt;/span&gt;&lt;/li&gt;&lt;/ul&gt;&lt;/span&gt;" style="part=1;html=1;resizeHeight=0;strokeColor=none;fillColor=none;align=left;verticalAlign=middle;spacingLeft=4;spacingRight=4;overflow=hidden;rotatable=0;points=[[0,0.5],[1,0.5]];portConstraint=eastwest;swimlaneFillColor=#c1e4f7;strokeOpacity=100;fillOpacity=100;fontSize=20;fontColor=#333333;" vertex="1" parent="124">
                    <mxGeometry y="25" width="312" height="247" as="geometry"/>
                </mxCell>
                <mxCell id="126" value="" style="line;strokeWidth=1;fillColor=none;align=left;verticalAlign=middle;spacingTop=-1;spacingLeft=3;spacingRight=3;rotatable=0;labelPosition=right;points=[];portConstraint=eastwest;" vertex="1" parent="124">
                    <mxGeometry y="272" width="312" height="8" as="geometry"/>
                </mxCell>
                <mxCell id="127" value="" style="part=1;html=1;resizeHeight=0;strokeColor=none;fillColor=none;align=left;verticalAlign=middle;spacingLeft=4;spacingRight=4;overflow=hidden;rotatable=0;points=[[0,0.5],[1,0.5]];portConstraint=eastwest;swimlaneFillColor=#c1e4f7;strokeOpacity=100;fillOpacity=100;fontSize=11;" vertex="1" parent="124">
                    <mxGeometry y="280" width="312" height="409.94960629921263" as="geometry"/>
                </mxCell>
                <mxCell id="128" value="&amp;lt;&amp;lt;interface&amp;gt;&amp;gt;&#10;User" style="html=1;whiteSpace=wrap;swimlane;childLayout=stackLayout;horizontal=1;startSize=26;horizontalStack=0;resizeParent=1;resizeParentMax=0;resizeLast=0;collapsible=0;marginBottom=0;swimlaneFillColor=#c1e4f7;startSize=25;fontSize=32;fontStyle=1;spacing=0;strokeColor=#5e5e5e;strokeOpacity=100;fillOpacity=100;rounded=1;absoluteArcSize=1;arcSize=7.199999999999999;fillColor=#c1e4f7;strokeWidth=2;" vertex="1" zOrder="77" parent="1">
                    <mxGeometry x="-2040" y="432" width="312" height="385" as="geometry"/>
                </mxCell>
                <mxCell id="129" value="" style="part=1;html=1;resizeHeight=0;strokeColor=none;fillColor=none;align=left;verticalAlign=middle;spacingLeft=4;spacingRight=4;overflow=hidden;rotatable=0;points=[[0,0.5],[1,0.5]];portConstraint=eastwest;swimlaneFillColor=#c1e4f7;strokeOpacity=100;fillOpacity=100;fontSize=11;" vertex="1" parent="128">
                    <mxGeometry y="25" width="312" height="132" as="geometry"/>
                </mxCell>
                <mxCell id="130" value="" style="line;strokeWidth=1;fillColor=none;align=left;verticalAlign=middle;spacingTop=-1;spacingLeft=3;spacingRight=3;rotatable=0;labelPosition=right;points=[];portConstraint=eastwest;" vertex="1" parent="128">
                    <mxGeometry y="157" width="312" height="8" as="geometry"/>
                </mxCell>
                <mxCell id="131" value="+ login() : void&#10;+ logout() : void" style="part=1;html=1;resizeHeight=0;strokeColor=none;fillColor=none;align=left;verticalAlign=middle;spacingLeft=4;spacingRight=4;overflow=hidden;rotatable=0;points=[[0,0.5],[1,0.5]];portConstraint=eastwest;swimlaneFillColor=#c1e4f7;strokeOpacity=100;fillOpacity=100;fontSize=20;fontColor=#333333;" vertex="1" parent="128">
                    <mxGeometry y="165" width="312" height="220" as="geometry"/>
                </mxCell>
                <UserObject label="" lucidchartObjectId="XVTPJnx9~3q-" id="132">
                    <mxCell style="html=1;jettySize=18;fontSize=11;strokeColor=#5E5E5E;strokeWidth=4;rounded=1;arcSize=12;edgeStyle=orthogonalEdgeStyle;startArrow=none;;endArrow=block;endFill=0;endSize=12;;exitX=-0.00220588235294126;exitY=0.5;exitPerimeter=1;entryX=1.0028846153846154;entryY=0.4441747572815535;entryPerimeter=1;" edge="1" parent="1" source="110" target="124">
                        <mxGeometry width="100" height="100" relative="1" as="geometry">
                            <Array as="points"/>
                        </mxGeometry>
                    </mxCell>
                </UserObject>
                <UserObject label="" lucidchartObjectId="hWTPpiE8yUmL" id="133">
                    <mxCell style="html=1;jettySize=18;fontSize=11;strokeColor=#5E5E5E;strokeWidth=5;rounded=1;arcSize=12;edgeStyle=orthogonalEdgeStyle;startArrow=none;;endArrow=block;endFill=0;endSize=12;;exitX=0.4148313624964588;exitY=1.0016519823788546;exitPerimeter=1;entryX=-0.0028846153846153848;entryY=0.2986216449920149;entryPerimeter=1;" edge="1" parent="1" source="2" target="128">
                        <mxGeometry width="100" height="100" relative="1" as="geometry">
                            <Array as="points"/>
                        </mxGeometry>
                    </mxCell>
                </UserObject>
                <mxCell id="134" value="&amp;lt;&amp;lt;interface&amp;gt;&amp;gt;&#10;CrediCard" style="html=1;whiteSpace=wrap;swimlane;childLayout=stackLayout;horizontal=1;startSize=26;horizontalStack=0;resizeParent=1;resizeParentMax=0;resizeLast=0;collapsible=0;marginBottom=0;swimlaneFillColor=#c1e4f7;startSize=25;fontSize=32;fontStyle=1;spacing=0;strokeColor=#5e5e5e;strokeOpacity=100;fillOpacity=100;rounded=1;absoluteArcSize=1;arcSize=7.199999999999999;fillColor=#c1e4f7;strokeWidth=2;" vertex="1" zOrder="81" parent="1">
                    <mxGeometry x="-996" y="-840" width="312" height="361" as="geometry"/>
                </mxCell>
                <mxCell id="135" value="" style="part=1;html=1;resizeHeight=0;strokeColor=none;fillColor=none;align=left;verticalAlign=middle;spacingLeft=4;spacingRight=4;overflow=hidden;rotatable=0;points=[[0,0.5],[1,0.5]];portConstraint=eastwest;swimlaneFillColor=#c1e4f7;strokeOpacity=100;fillOpacity=100;fontSize=11;" vertex="1" parent="134">
                    <mxGeometry y="25" width="312" height="120" as="geometry"/>
                </mxCell>
                <mxCell id="136" value="" style="line;strokeWidth=1;fillColor=none;align=left;verticalAlign=middle;spacingTop=-1;spacingLeft=3;spacingRight=3;rotatable=0;labelPosition=right;points=[];portConstraint=eastwest;" vertex="1" parent="134">
                    <mxGeometry y="145" width="312" height="8" as="geometry"/>
                </mxCell>
                <mxCell id="137" value="+ connectToAPI() : void" style="part=1;html=1;resizeHeight=0;strokeColor=none;fillColor=none;align=left;verticalAlign=middle;spacingLeft=4;spacingRight=4;overflow=hidden;rotatable=0;points=[[0,0.5],[1,0.5]];portConstraint=eastwest;swimlaneFillColor=#c1e4f7;strokeOpacity=100;fillOpacity=100;fontSize=20;fontColor=#333333;" vertex="1" parent="134">
                    <mxGeometry y="153" width="312" height="208" as="geometry"/>
                </mxCell>
                <mxCell id="138" value="&amp;lt;&amp;lt;interface&amp;gt;&amp;gt; Car" style="html=1;whiteSpace=wrap;swimlane;childLayout=stackLayout;horizontal=1;startSize=26;horizontalStack=0;resizeParent=1;resizeParentMax=0;resizeLast=0;collapsible=0;marginBottom=0;swimlaneFillColor=#e5e5e5;startSize=25;fontSize=32;fontColor=#333333;spacing=0;strokeColor=#5e5e5e;strokeOpacity=100;fillOpacity=100;rounded=1;absoluteArcSize=1;arcSize=7.199999999999999;fillColor=#e5e5e5;strokeWidth=2;" vertex="1" zOrder="82" parent="1">
                    <mxGeometry x="-4284" y="-1178" width="324" height="848.2" as="geometry"/>
                </mxCell>
                <mxCell id="139" value="- km : Integer&#10;- price : Integer&#10;- year : Integer&#10;- availability : Boolean&#10;- onrent: Boolean" style="part=1;html=1;resizeHeight=0;strokeColor=none;fillColor=none;align=left;verticalAlign=middle;spacingLeft=4;spacingRight=4;overflow=hidden;rotatable=0;points=[[0,0.5],[1,0.5]];portConstraint=eastwest;swimlaneFillColor=#e5e5e5;strokeOpacity=100;fillOpacity=100;fontSize=20;fontColor=#333333;" vertex="1" parent="138">
                    <mxGeometry y="25" width="324" height="326" as="geometry"/>
                </mxCell>
                <mxCell id="140" value="" style="line;strokeWidth=1;fillColor=none;align=left;verticalAlign=middle;spacingTop=-1;spacingLeft=3;spacingRight=3;rotatable=0;labelPosition=right;points=[];portConstraint=eastwest;" vertex="1" parent="138">
                    <mxGeometry y="351" width="324" height="8" as="geometry"/>
                </mxCell>
                <mxCell id="141" value="&lt;span style=&quot;font-size:20px;color:#333333;text-align: center;&quot;&gt;&lt;span style=&quot;font-size:20px;color:#333333;text-align: center;&quot;&gt;+ alertRevision() : void&#10;&#10;+ overhaulCar() : void&#10;+ sellCar() : void&#10;+ exitCar() : void&#10;&#10;&lt;/span&gt;&lt;span style=&quot;font-size:20px;color:#333333;text-decoration: underline;text-align: center;&quot;&gt;+ list() : Car[]&lt;/span&gt;&#10;+ listAvailable() : Car[]&#10;+ listNonAvailable() : Car[]&#10;+ listOverhaulNeeded() : Car[]&#10;+ listOverhaulInProgress() : Car[]&lt;/span&gt;" style="part=1;html=1;resizeHeight=0;strokeColor=none;fillColor=none;align=left;verticalAlign=middle;spacingLeft=4;spacingRight=4;overflow=hidden;rotatable=0;points=[[0,0.5],[1,0.5]];portConstraint=eastwest;swimlaneFillColor=#e5e5e5;strokeOpacity=100;fillOpacity=100;fontSize=20;fontColor=#333333;fontStyle=4;" vertex="1" parent="138">
                    <mxGeometry y="359" width="324" height="489.2" as="geometry"/>
                </mxCell>
                <UserObject label="" lucidchartObjectId="3ZTPIbbzaPxq" id="142">
                    <mxCell style="html=1;jettySize=18;fontSize=11;strokeColor=#5E5E5E;strokeWidth=4;rounded=1;arcSize=12;edgeStyle=orthogonalEdgeStyle;startArrow=none;;endArrow=block;endFill=0;endSize=12;;exitX=1.0028846153846154;exitY=0.5;exitPerimeter=1;entryX=-0.0028846153846153848;entryY=0.32184401860872675;entryPerimeter=1;" edge="1" parent="1" source="120" target="124">
                        <mxGeometry width="100" height="100" relative="1" as="geometry">
                            <Array as="points"/>
                        </mxGeometry>
                    </mxCell>
                </UserObject>
                <mxCell id="143" value="&amp;lt;&amp;lt;interface&amp;gt;&amp;gt; Localization" style="html=1;whiteSpace=wrap;swimlane;childLayout=stackLayout;horizontal=1;startSize=26;horizontalStack=0;resizeParent=1;resizeParentMax=0;resizeLast=0;collapsible=0;marginBottom=0;swimlaneFillColor=#f9d2de;startSize=25;fontSize=32;fontColor=#333333;spacing=0;strokeColor=#5e5e5e;strokeOpacity=100;fillOpacity=100;rounded=1;absoluteArcSize=1;arcSize=7.199999999999999;fillColor=#f9d2de;strokeWidth=2;" vertex="1" zOrder="84" parent="1">
                    <mxGeometry x="-4620" y="1092" width="300" height="412" as="geometry"/>
                </mxCell>
                <mxCell id="144" value="- latitude : Double&#10;- longitude : Double" style="part=1;html=1;resizeHeight=0;strokeColor=none;fillColor=none;align=left;verticalAlign=middle;spacingLeft=4;spacingRight=4;overflow=hidden;rotatable=0;points=[[0,0.5],[1,0.5]];portConstraint=eastwest;swimlaneFillColor=#f9d2de;strokeOpacity=100;fillOpacity=100;fontSize=20;fontColor=#333333;" vertex="1" parent="143">
                    <mxGeometry y="25" width="300" height="129" as="geometry"/>
                </mxCell>
                <mxCell id="145" value="" style="line;strokeWidth=1;fillColor=none;align=left;verticalAlign=middle;spacingTop=-1;spacingLeft=3;spacingRight=3;rotatable=0;labelPosition=right;points=[];portConstraint=eastwest;" vertex="1" parent="143">
                    <mxGeometry y="154" width="300" height="8" as="geometry"/>
                </mxCell>
                <mxCell id="146" value="" style="part=1;html=1;resizeHeight=0;strokeColor=none;fillColor=none;align=left;verticalAlign=middle;spacingLeft=4;spacingRight=4;overflow=hidden;rotatable=0;points=[[0,0.5],[1,0.5]];portConstraint=eastwest;swimlaneFillColor=#f9d2de;strokeOpacity=100;fillOpacity=100;fontSize=11;" vertex="1" parent="143">
                    <mxGeometry y="162" width="300" height="250" as="geometry"/>
                </mxCell>
                <mxCell id="147" value="&amp;lt;&amp;lt;interface&amp;gt;&amp;gt;&#10;Address" style="html=1;whiteSpace=wrap;swimlane;childLayout=stackLayout;horizontal=1;startSize=26;horizontalStack=0;resizeParent=1;resizeParentMax=0;resizeLast=0;collapsible=0;marginBottom=0;swimlaneFillColor=#c1e4f7;startSize=25;fontSize=32;fontStyle=1;spacing=0;strokeColor=#5e5e5e;strokeOpacity=100;fillOpacity=100;rounded=1;absoluteArcSize=1;arcSize=7.199999999999999;fillColor=#c1e4f7;strokeWidth=2;" vertex="1" zOrder="85" parent="1">
                    <mxGeometry x="444" y="-819" width="312" height="361" as="geometry"/>
                </mxCell>
                <mxCell id="148" value="" style="part=1;html=1;resizeHeight=0;strokeColor=none;fillColor=none;align=left;verticalAlign=middle;spacingLeft=4;spacingRight=4;overflow=hidden;rotatable=0;points=[[0,0.5],[1,0.5]];portConstraint=eastwest;swimlaneFillColor=#c1e4f7;strokeOpacity=100;fillOpacity=100;fontSize=11;" vertex="1" parent="147">
                    <mxGeometry y="25" width="312" height="120" as="geometry"/>
                </mxCell>
                <mxCell id="149" value="" style="line;strokeWidth=1;fillColor=none;align=left;verticalAlign=middle;spacingTop=-1;spacingLeft=3;spacingRight=3;rotatable=0;labelPosition=right;points=[];portConstraint=eastwest;" vertex="1" parent="147">
                    <mxGeometry y="145" width="312" height="8" as="geometry"/>
                </mxCell>
                <mxCell id="150" value="" style="part=1;html=1;resizeHeight=0;strokeColor=none;fillColor=none;align=left;verticalAlign=middle;spacingLeft=4;spacingRight=4;overflow=hidden;rotatable=0;points=[[0,0.5],[1,0.5]];portConstraint=eastwest;swimlaneFillColor=#c1e4f7;strokeOpacity=100;fillOpacity=100;fontSize=11;" vertex="1" parent="147">
                    <mxGeometry y="153" width="312" height="208" as="geometry"/>
                </mxCell>
            </root>
        </mxGraphModel>
    </diagram>
</mxfile>